<svg xmlns="http://www.w3.org/2000/svg" width="800" height="825" viewBox="0 0 800 825">
  <style>
    text { font-family: -apple-system, BlinkMacSystemFont, "Segoe UI", Helvetica, Arial, sans-serif; }
    .title { font-size: 16px; font-weight: 600; fill: #24292f; }
    .label { font-size: 12px; fill: #24292f; }
    .value { font-size: 11px; fill: #57606a; }
    .axis-label { font-size: 11px; fill: #57606a; }
    .legend-text { font-size: 12px; fill: #24292f; }
    .grid { stroke: #d0d7de; stroke-width: 0.5; }
  </style>
  <rect width="100%" height="100%" fill="white"/>
  <text x="400.0" y="25" text-anchor="middle" class="title">Binary Encode Throughput</text>
  <rect x="140" y="35" width="14" height="14" rx="2" fill="#4C78A8"/>
  <text x="158" y="46" class="legend-text">buffa</text>
  <rect x="209.5" y="35" width="14" height="14" rx="2" fill="#F58518"/>
  <text x="227.5" y="46" class="legend-text">prost</text>
  <rect x="279.0" y="35" width="14" height="14" rx="2" fill="#EEAE62"/>
  <text x="297.0" y="46" class="legend-text">prost (bytes)</text>
  <rect x="408.5" y="35" width="14" height="14" rx="2" fill="#E45756"/>
  <text x="426.5" y="46" class="legend-text">protobuf-v4</text>
  <rect x="523.0" y="35" width="14" height="14" rx="2" fill="#54A24B"/>
  <text x="541.0" y="46" class="legend-text">Go</text>
  <line x1="140.0" y1="80" x2="140.0" y2="790" class="grid"/>
  <text x="140.0" y="805" text-anchor="middle" class="axis-label">0</text>
  <line x1="256.0" y1="80" x2="256.0" y2="790" class="grid"/>
  <text x="256.0" y="805" text-anchor="middle" class="axis-label">10.0k</text>
  <line x1="372.0" y1="80" x2="372.0" y2="790" class="grid"/>
  <text x="372.0" y="805" text-anchor="middle" class="axis-label">20.0k</text>
  <line x1="488.0" y1="80" x2="488.0" y2="790" class="grid"/>
  <text x="488.0" y="805" text-anchor="middle" class="axis-label">30.0k</text>
  <line x1="604.0" y1="80" x2="604.0" y2="790" class="grid"/>
  <text x="604.0" y="805" text-anchor="middle" class="axis-label">40.0k</text>
  <line x1="720.0" y1="80" x2="720.0" y2="790" class="grid"/>
  <text x="720.0" y="805" text-anchor="middle" class="axis-label">50.0k</text>
  <text x="430.0" y="820" text-anchor="middle" class="axis-label">MiB/s</text>
  <text x="130" y="147.0" text-anchor="end" class="label">ApiResponse</text>
  <rect x="140" y="80.0" width="29.5" height="22" rx="2" fill="#4C78A8"/>
  <text x="173.5" y="95.0" class="value">2,542</text>
  <rect x="140" y="106.0" width="21.0" height="22" rx="2" fill="#F58518"/>
  <text x="165.0" y="121.0" class="value">1,809</text>
  <rect x="140" y="132.0" width="1.0" height="22" rx="2" fill="#EEAE62"/>
  <text x="145.0" y="147.0" class="value">0</text>
  <rect x="140" y="158.0" width="12.2" height="22" rx="2" fill="#E45756"/>
  <text x="156.2" y="173.0" class="value">1,048</text>
  <rect x="140" y="184.0" width="6.4" height="22" rx="2" fill="#54A24B"/>
  <text x="150.4" y="199.0" class="value">555</text>
  <text x="130" y="293.0" text-anchor="end" class="label">LogRecord</text>
  <rect x="140" y="226.0" width="46.6" height="22" rx="2" fill="#4C78A8"/>
  <text x="190.6" y="241.0" class="value">4,018</text>
  <rect x="140" y="252.0" width="35.9" height="22" rx="2" fill="#F58518"/>
  <text x="179.9" y="267.0" class="value">3,092</text>
  <rect x="140" y="278.0" width="1.0" height="22" rx="2" fill="#EEAE62"/>
  <text x="145.0" y="293.0" class="value">0</text>
  <rect x="140" y="304.0" width="19.3" height="22" rx="2" fill="#E45756"/>
  <text x="163.3" y="319.0" class="value">1,666</text>
  <rect x="140" y="330.0" width="3.5" height="22" rx="2" fill="#54A24B"/>
  <text x="147.5" y="345.0" class="value">302</text>
  <text x="130" y="439.0" text-anchor="end" class="label">AnalyticsEvent</text>
  <rect x="140" y="372.0" width="7.6" height="22" rx="2" fill="#4C78A8"/>
  <text x="151.6" y="387.0" class="value">655</text>
  <rect x="140" y="398.0" width="4.1" height="22" rx="2" fill="#F58518"/>
  <text x="148.1" y="413.0" class="value">357</text>
  <rect x="140" y="424.0" width="1.0" height="22" rx="2" fill="#EEAE62"/>
  <text x="145.0" y="439.0" class="value">0</text>
  <rect x="140" y="450.0" width="5.9" height="22" rx="2" fill="#E45756"/>
  <text x="149.9" y="465.0" class="value">511</text>
  <rect x="140" y="476.0" width="1.8" height="22" rx="2" fill="#54A24B"/>
  <text x="145.8" y="491.0" class="value">159</text>
  <text x="130" y="585.0" text-anchor="end" class="label">GoogleMessage1</text>
  <rect x="140" y="518.0" width="30.1" height="22" rx="2" fill="#4C78A8"/>
  <text x="174.1" y="533.0" class="value">2,594</text>
  <rect x="140" y="544.0" width="21.0" height="22" rx="2" fill="#F58518"/>
  <text x="165.0" y="559.0" class="value">1,808</text>
  <rect x="140" y="570.0" width="1.0" height="22" rx="2" fill="#EEAE62"/>
  <text x="145.0" y="585.0" class="value">0</text>
  <rect x="140" y="596.0" width="10.1" height="22" rx="2" fill="#E45756"/>
  <text x="154.1" y="611.0" class="value">872</text>
  <rect x="140" y="622.0" width="4.2" height="22" rx="2" fill="#54A24B"/>
  <text x="148.2" y="637.0" class="value">358</text>
  <text x="130" y="731.0" text-anchor="end" class="label">MediaFrame</text>
  <rect x="140" y="664.0" width="533.5" height="22" rx="2" fill="#4C78A8"/>
  <text x="677.5" y="679.0" class="value">45,990</text>
  <rect x="140" y="690.0" width="446.8" height="22" rx="2" fill="#F58518"/>
  <text x="590.8" y="705.0" class="value">38,514</text>
  <rect x="140" y="716.0" width="1.0" height="22" rx="2" fill="#EEAE62"/>
  <text x="145.0" y="731.0" class="value">0</text>
  <rect x="140" y="742.0" width="1.0" height="22" rx="2" fill="#E45756"/>
  <text x="145.0" y="757.0" class="value">0</text>
  <rect x="140" y="768.0" width="1.0" height="22" rx="2" fill="#54A24B"/>
  <text x="145.0" y="783.0" class="value">0</text>
</svg>
