<svg xmlns="http://www.w3.org/2000/svg" width="800" height="955" viewBox="0 0 800 955">
  <style>
    text { font-family: -apple-system, BlinkMacSystemFont, "Segoe UI", Helvetica, Arial, sans-serif; }
    .title { font-size: 16px; font-weight: 600; fill: #24292f; }
    .label { font-size: 12px; fill: #24292f; }
    .value { font-size: 11px; fill: #57606a; }
    .axis-label { font-size: 11px; fill: #57606a; }
    .legend-text { font-size: 12px; fill: #24292f; }
    .grid { stroke: #d0d7de; stroke-width: 0.5; }
  </style>
  <rect width="100%" height="100%" fill="white"/>
  <text x="400.0" y="25" text-anchor="middle" class="title">Binary Decode Throughput</text>
  <rect x="140" y="35" width="14" height="14" rx="2" fill="#4C78A8"/>
  <text x="158" y="46" class="legend-text">buffa</text>
  <rect x="209.5" y="35" width="14" height="14" rx="2" fill="#72B7B2"/>
  <text x="227.5" y="46" class="legend-text">buffa (view)</text>
  <rect x="331.5" y="35" width="14" height="14" rx="2" fill="#F58518"/>
  <text x="349.5" y="46" class="legend-text">prost</text>
  <rect x="401.0" y="35" width="14" height="14" rx="2" fill="#EEAE62"/>
  <text x="419.0" y="46" class="legend-text">prost (bytes)</text>
  <rect x="530.5" y="35" width="14" height="14" rx="2" fill="#E45756"/>
  <text x="548.5" y="46" class="legend-text">protobuf-v4</text>
  <rect x="645.0" y="35" width="14" height="14" rx="2" fill="#54A24B"/>
  <text x="663.0" y="46" class="legend-text">Go</text>
  <line x1="140.0" y1="80" x2="140.0" y2="920" class="grid"/>
  <text x="140.0" y="935" text-anchor="middle" class="axis-label">0</text>
  <line x1="256.0" y1="80" x2="256.0" y2="920" class="grid"/>
  <text x="256.0" y="935" text-anchor="middle" class="axis-label">16.0k</text>
  <line x1="372.0" y1="80" x2="372.0" y2="920" class="grid"/>
  <text x="372.0" y="935" text-anchor="middle" class="axis-label">32.0k</text>
  <line x1="488.0" y1="80" x2="488.0" y2="920" class="grid"/>
  <text x="488.0" y="935" text-anchor="middle" class="axis-label">48.0k</text>
  <line x1="604.0" y1="80" x2="604.0" y2="920" class="grid"/>
  <text x="604.0" y="935" text-anchor="middle" class="axis-label">64.0k</text>
  <line x1="720.0" y1="80" x2="720.0" y2="920" class="grid"/>
  <text x="720.0" y="935" text-anchor="middle" class="axis-label">80.0k</text>
  <text x="430.0" y="950" text-anchor="middle" class="axis-label">MiB/s</text>
  <text x="130" y="160.0" text-anchor="end" class="label">ApiResponse</text>
  <rect x="140" y="80.0" width="6.3" height="22" rx="2" fill="#4C78A8"/>
  <text x="150.3" y="95.0" class="value">862</text>
  <rect x="140" y="106.0" width="10.7" height="22" rx="2" fill="#72B7B2"/>
  <text x="154.7" y="121.0" class="value">1,474</text>
  <rect x="140" y="132.0" width="5.5" height="22" rx="2" fill="#F58518"/>
  <text x="149.5" y="147.0" class="value">756</text>
  <rect x="140" y="158.0" width="4.9" height="22" rx="2" fill="#EEAE62"/>
  <text x="148.9" y="173.0" class="value">676</text>
  <rect x="140" y="184.0" width="5.2" height="22" rx="2" fill="#E45756"/>
  <text x="149.2" y="199.0" class="value">711</text>
  <rect x="140" y="210.0" width="2.0" height="22" rx="2" fill="#54A24B"/>
  <text x="146.0" y="225.0" class="value">270</text>
  <text x="130" y="332.0" text-anchor="end" class="label">LogRecord</text>
  <rect x="140" y="252.0" width="5.2" height="22" rx="2" fill="#4C78A8"/>
  <text x="149.2" y="267.0" class="value">722</text>
  <rect x="140" y="278.0" width="14.4" height="22" rx="2" fill="#72B7B2"/>
  <text x="158.4" y="293.0" class="value">1,983</text>
  <rect x="140" y="304.0" width="5.2" height="22" rx="2" fill="#F58518"/>
  <text x="149.2" y="319.0" class="value">712</text>
  <rect x="140" y="330.0" width="4.9" height="22" rx="2" fill="#EEAE62"/>
  <text x="148.9" y="345.0" class="value">676</text>
  <rect x="140" y="356.0" width="6.3" height="22" rx="2" fill="#E45756"/>
  <text x="150.3" y="371.0" class="value">873</text>
  <rect x="140" y="382.0" width="1.8" height="22" rx="2" fill="#54A24B"/>
  <text x="145.8" y="397.0" class="value">249</text>
  <text x="130" y="504.0" text-anchor="end" class="label">AnalyticsEvent</text>
  <rect x="140" y="424.0" width="1.4" height="22" rx="2" fill="#4C78A8"/>
  <text x="145.4" y="439.0" class="value">198</text>
  <rect x="140" y="450.0" width="2.3" height="22" rx="2" fill="#72B7B2"/>
  <text x="146.3" y="465.0" class="value">320</text>
  <rect x="140" y="476.0" width="1.8" height="22" rx="2" fill="#F58518"/>
  <text x="145.8" y="491.0" class="value">253</text>
  <rect x="140" y="502.0" width="1.4" height="22" rx="2" fill="#EEAE62"/>
  <text x="145.4" y="517.0" class="value">193</text>
  <rect x="140" y="528.0" width="2.6" height="22" rx="2" fill="#E45756"/>
  <text x="146.6" y="543.0" class="value">358</text>
  <rect x="140" y="554.0" width="1.0" height="22" rx="2" fill="#54A24B"/>
  <text x="145.0" y="569.0" class="value">91</text>
  <text x="130" y="676.0" text-anchor="end" class="label">GoogleMessage1</text>
  <rect x="140" y="596.0" width="7.3" height="22" rx="2" fill="#4C78A8"/>
  <text x="151.3" y="611.0" class="value">1,013</text>
  <rect x="140" y="622.0" width="9.7" height="22" rx="2" fill="#72B7B2"/>
  <text x="153.7" y="637.0" class="value">1,341</text>
  <rect x="140" y="648.0" width="6.9" height="22" rx="2" fill="#F58518"/>
  <text x="150.9" y="663.0" class="value">956</text>
  <rect x="140" y="674.0" width="6.7" height="22" rx="2" fill="#EEAE62"/>
  <text x="150.7" y="689.0" class="value">930</text>
  <rect x="140" y="700.0" width="4.7" height="22" rx="2" fill="#E45756"/>
  <text x="148.7" y="715.0" class="value">648</text>
  <rect x="140" y="726.0" width="2.5" height="22" rx="2" fill="#54A24B"/>
  <text x="146.5" y="741.0" class="value">344</text>
  <text x="130" y="848.0" text-anchor="end" class="label">MediaFrame</text>
  <rect x="140" y="768.0" width="121.9" height="22" rx="2" fill="#4C78A8"/>
  <text x="265.9" y="783.0" class="value">16,816</text>
  <rect x="140" y="794.0" width="529.3" height="22" rx="2" fill="#72B7B2"/>
  <text x="673.3" y="809.0" class="value">73,004</text>
  <rect x="140" y="820.0" width="70.0" height="22" rx="2" fill="#F58518"/>
  <text x="214.0" y="835.0" class="value">9,648</text>
  <rect x="140" y="846.0" width="170.5" height="22" rx="2" fill="#EEAE62"/>
  <text x="314.5" y="861.0" class="value">23,516</text>
  <rect x="140" y="872.0" width="1.0" height="22" rx="2" fill="#E45756"/>
  <text x="145.0" y="887.0" class="value">0</text>
  <rect x="140" y="898.0" width="1.0" height="22" rx="2" fill="#54A24B"/>
  <text x="145.0" y="913.0" class="value">0</text>
</svg>
