<svg xmlns="http://www.w3.org/2000/svg" width="800" height="293" viewBox="0 0 800 293">
  <style>
    text { font-family: -apple-system, BlinkMacSystemFont, "Segoe UI", Helvetica, Arial, sans-serif; }
    .title { font-size: 16px; font-weight: 600; fill: #24292f; }
    .label { font-size: 12px; fill: #24292f; }
    .value { font-size: 11px; fill: #57606a; }
    .axis-label { font-size: 11px; fill: #57606a; }
    .legend-text { font-size: 12px; fill: #24292f; }
    .grid { stroke: #d0d7de; stroke-width: 0.5; }
  </style>
  <rect width="100%" height="100%" fill="white"/>
  <text x="400.0" y="25" text-anchor="middle" class="title">Binary Decode Throughput — MediaFrame</text>
  <rect x="70" y="35" width="14" height="14" rx="2" fill="#4C78A8"/>
  <text x="88" y="46" class="legend-text">buffa</text>
  <rect x="139.5" y="35" width="14" height="14" rx="2" fill="#72B7B2"/>
  <text x="157.5" y="46" class="legend-text">buffa (view)</text>
  <rect x="261.5" y="35" width="14" height="14" rx="2" fill="#A0CBE8"/>
  <text x="279.5" y="46" class="legend-text">buffa (lazy)</text>
  <rect x="383.5" y="35" width="14" height="14" rx="2" fill="#F58518"/>
  <text x="401.5" y="46" class="legend-text">prost</text>
  <rect x="453" y="35" width="14" height="14" rx="2" fill="#EEAE62"/>
  <text x="471" y="46" class="legend-text">prost (bytes)</text>
  <rect x="582.5" y="35" width="14" height="14" rx="2" fill="#E45756"/>
  <text x="600.5" y="46" class="legend-text">protobuf-v4</text>
  <rect x="697" y="35" width="14" height="14" rx="2" fill="#54A24B"/>
  <text x="715" y="46" class="legend-text">Go</text>
  <line x1="140.0" y1="80" x2="140.0" y2="258" class="grid"/>
  <text x="140.0" y="273" text-anchor="middle" class="axis-label">0.0</text>
  <line x1="256.0" y1="80" x2="256.0" y2="258" class="grid"/>
  <text x="256.0" y="273" text-anchor="middle" class="axis-label">8.0</text>
  <line x1="372.0" y1="80" x2="372.0" y2="258" class="grid"/>
  <text x="372.0" y="273" text-anchor="middle" class="axis-label">16.0</text>
  <line x1="488.0" y1="80" x2="488.0" y2="258" class="grid"/>
  <text x="488.0" y="273" text-anchor="middle" class="axis-label">24.0</text>
  <line x1="604.0" y1="80" x2="604.0" y2="258" class="grid"/>
  <text x="604.0" y="273" text-anchor="middle" class="axis-label">32.0</text>
  <line x1="720.0" y1="80" x2="720.0" y2="258" class="grid"/>
  <text x="720.0" y="273" text-anchor="middle" class="axis-label">40.0</text>
  <text x="430.0" y="288" text-anchor="middle" class="axis-label">GiB/s</text>
  <text x="130" y="173.0" text-anchor="end" class="label">MediaFrame</text>
  <rect x="140" y="80.0" width="146.3" height="22" rx="2" fill="#4C78A8"/>
  <text x="290.3" y="95.0" class="value">10.09</text>
  <rect x="140" y="106.0" width="515.3" height="22" rx="2" fill="#72B7B2"/>
  <text x="659.3" y="121.0" class="value">35.54</text>
  <rect x="140" y="132.0" width="517.1" height="22" rx="2" fill="#A0CBE8"/>
  <text x="661.1" y="147.0" class="value">35.66</text>
  <rect x="140" y="158.0" width="85.5" height="22" rx="2" fill="#F58518"/>
  <text x="229.5" y="173.0" class="value">5.90</text>
  <rect x="140" y="184.0" width="261.7" height="22" rx="2" fill="#EEAE62"/>
  <text x="405.7" y="199.0" class="value">18.05</text>
  <rect x="140" y="210.0" width="149.1" height="22" rx="2" fill="#E45756"/>
  <text x="293.1" y="225.0" class="value">10.28</text>
  <rect x="140" y="236.0" width="26.8" height="22" rx="2" fill="#54A24B"/>
  <text x="170.8" y="251.0" class="value">1.85</text>
</svg>
