<svg xmlns="http://www.w3.org/2000/svg" width="800" height="267" viewBox="0 0 800 267">
  <style>
    text { font-family: -apple-system, BlinkMacSystemFont, "Segoe UI", Helvetica, Arial, sans-serif; }
    .title { font-size: 16px; font-weight: 600; fill: #24292f; }
    .label { font-size: 12px; fill: #24292f; }
    .value { font-size: 11px; fill: #57606a; }
    .axis-label { font-size: 11px; fill: #57606a; }
    .legend-text { font-size: 12px; fill: #24292f; }
    .grid { stroke: #d0d7de; stroke-width: 0.5; }
  </style>
  <rect width="100%" height="100%" fill="white"/>
  <text x="400.0" y="25" text-anchor="middle" class="title">Binary Encode Throughput — AnalyticsEvent</text>
  <rect x="134.75" y="35" width="14" height="14" rx="2" fill="#4C78A8"/>
  <text x="152.75" y="46" class="legend-text">buffa</text>
  <rect x="204.25" y="35" width="14" height="14" rx="2" fill="#72B7B2"/>
  <text x="222.25" y="46" class="legend-text">buffa (view)</text>
  <rect x="326.25" y="35" width="14" height="14" rx="2" fill="#A0CBE8"/>
  <text x="344.25" y="46" class="legend-text">buffa (lazy)</text>
  <rect x="448.25" y="35" width="14" height="14" rx="2" fill="#F58518"/>
  <text x="466.25" y="46" class="legend-text">prost</text>
  <rect x="517.75" y="35" width="14" height="14" rx="2" fill="#E45756"/>
  <text x="535.75" y="46" class="legend-text">protobuf-v4</text>
  <rect x="632.25" y="35" width="14" height="14" rx="2" fill="#54A24B"/>
  <text x="650.25" y="46" class="legend-text">Go</text>
  <line x1="140.0" y1="80" x2="140.0" y2="232" class="grid"/>
  <text x="140.0" y="247" text-anchor="middle" class="axis-label">0.0</text>
  <line x1="256.0" y1="80" x2="256.0" y2="232" class="grid"/>
  <text x="256.0" y="247" text-anchor="middle" class="axis-label">6.0</text>
  <line x1="372.0" y1="80" x2="372.0" y2="232" class="grid"/>
  <text x="372.0" y="247" text-anchor="middle" class="axis-label">12.0</text>
  <line x1="488.0" y1="80" x2="488.0" y2="232" class="grid"/>
  <text x="488.0" y="247" text-anchor="middle" class="axis-label">18.0</text>
  <line x1="604.0" y1="80" x2="604.0" y2="232" class="grid"/>
  <text x="604.0" y="247" text-anchor="middle" class="axis-label">24.0</text>
  <line x1="720.0" y1="80" x2="720.0" y2="232" class="grid"/>
  <text x="720.0" y="247" text-anchor="middle" class="axis-label">30.0</text>
  <text x="430.0" y="262" text-anchor="middle" class="axis-label">GiB/s</text>
  <text x="130" y="160.0" text-anchor="end" class="label">AnalyticsEvent</text>
  <rect x="140" y="80.0" width="11.2" height="22" rx="2" fill="#4C78A8"/>
  <text x="155.2" y="95.0" class="value">0.58</text>
  <rect x="140" y="106.0" width="11.4" height="22" rx="2" fill="#72B7B2"/>
  <text x="155.4" y="121.0" class="value">0.59</text>
  <rect x="140" y="132.0" width="450.1" height="22" rx="2" fill="#A0CBE8"/>
  <text x="594.1" y="147.0" class="value">23.28</text>
  <rect x="140" y="158.0" width="6.7" height="22" rx="2" fill="#F58518"/>
  <text x="150.7" y="173.0" class="value">0.35</text>
  <rect x="140" y="184.0" width="9.8" height="22" rx="2" fill="#E45756"/>
  <text x="153.8" y="199.0" class="value">0.50</text>
  <rect x="140" y="210.0" width="3.0" height="22" rx="2" fill="#54A24B"/>
  <text x="147.0" y="225.0" class="value">0.16</text>
</svg>
