<svg xmlns="http://www.w3.org/2000/svg" width="800" height="293" viewBox="0 0 800 293">
  <style>
    text { font-family: -apple-system, BlinkMacSystemFont, "Segoe UI", Helvetica, Arial, sans-serif; }
    .title { font-size: 16px; font-weight: 600; fill: #24292f; }
    .label { font-size: 12px; fill: #24292f; }
    .value { font-size: 11px; fill: #57606a; }
    .axis-label { font-size: 11px; fill: #57606a; }
    .legend-text { font-size: 12px; fill: #24292f; }
    .grid { stroke: #d0d7de; stroke-width: 0.5; }
  </style>
  <rect width="100%" height="100%" fill="white"/>
  <text x="400.0" y="25" text-anchor="middle" class="title">Binary Decode Throughput — AnalyticsEvent</text>
  <rect x="10" y="35" width="14" height="14" rx="2" fill="#4C78A8"/>
  <text x="28" y="46" class="legend-text">buffa</text>
  <rect x="79.5" y="35" width="14" height="14" rx="2" fill="#72B7B2"/>
  <text x="97.5" y="46" class="legend-text">buffa (view)</text>
  <rect x="201.5" y="35" width="14" height="14" rx="2" fill="#A0CBE8"/>
  <text x="219.5" y="46" class="legend-text">buffa (lazy)</text>
  <rect x="323.5" y="35" width="14" height="14" rx="2" fill="#F58518"/>
  <text x="341.5" y="46" class="legend-text">prost</text>
  <rect x="393" y="35" width="14" height="14" rx="2" fill="#EEAE62"/>
  <text x="411" y="46" class="legend-text">prost (bytes)</text>
  <rect x="522.5" y="35" width="14" height="14" rx="2" fill="#E45756"/>
  <text x="540.5" y="46" class="legend-text">protobuf-v4</text>
  <rect x="637" y="35" width="14" height="14" rx="2" fill="#54A24B"/>
  <text x="655" y="46" class="legend-text">Go</text>
  <line x1="140.0" y1="80" x2="140.0" y2="258" class="grid"/>
  <text x="140.0" y="273" text-anchor="middle" class="axis-label">0.0</text>
  <line x1="256.0" y1="80" x2="256.0" y2="258" class="grid"/>
  <text x="256.0" y="273" text-anchor="middle" class="axis-label">4.0</text>
  <line x1="372.0" y1="80" x2="372.0" y2="258" class="grid"/>
  <text x="372.0" y="273" text-anchor="middle" class="axis-label">8.0</text>
  <line x1="488.0" y1="80" x2="488.0" y2="258" class="grid"/>
  <text x="488.0" y="273" text-anchor="middle" class="axis-label">12.0</text>
  <line x1="604.0" y1="80" x2="604.0" y2="258" class="grid"/>
  <text x="604.0" y="273" text-anchor="middle" class="axis-label">16.0</text>
  <line x1="720.0" y1="80" x2="720.0" y2="258" class="grid"/>
  <text x="720.0" y="273" text-anchor="middle" class="axis-label">20.0</text>
  <text x="430.0" y="288" text-anchor="middle" class="axis-label">GiB/s</text>
  <text x="130" y="173.0" text-anchor="end" class="label">AnalyticsEvent</text>
  <rect x="140" y="80.0" width="5.5" height="22" rx="2" fill="#4C78A8"/>
  <text x="149.5" y="95.0" class="value">0.19</text>
  <rect x="140" y="106.0" width="9.0" height="22" rx="2" fill="#72B7B2"/>
  <text x="153.0" y="121.0" class="value">0.31</text>
  <rect x="140" y="132.0" width="518.4" height="22" rx="2" fill="#A0CBE8"/>
  <text x="662.4" y="147.0" class="value">17.88</text>
  <rect x="140" y="158.0" width="7.1" height="22" rx="2" fill="#F58518"/>
  <text x="151.1" y="173.0" class="value">0.24</text>
  <rect x="140" y="184.0" width="5.6" height="22" rx="2" fill="#EEAE62"/>
  <text x="149.6" y="199.0" class="value">0.19</text>
  <rect x="140" y="210.0" width="9.6" height="22" rx="2" fill="#E45756"/>
  <text x="153.6" y="225.0" class="value">0.33</text>
  <rect x="140" y="236.0" width="2.6" height="22" rx="2" fill="#54A24B"/>
  <text x="146.6" y="251.0" class="value">0.09</text>
</svg>
