<svg xmlns="http://www.w3.org/2000/svg" width="800" height="241" viewBox="0 0 800 241">
  <style>
    text { font-family: -apple-system, BlinkMacSystemFont, "Segoe UI", Helvetica, Arial, sans-serif; }
    .title { font-size: 16px; font-weight: 600; fill: #24292f; }
    .label { font-size: 12px; fill: #24292f; }
    .value { font-size: 11px; fill: #57606a; }
    .axis-label { font-size: 11px; fill: #57606a; }
    .legend-text { font-size: 12px; fill: #24292f; }
    .grid { stroke: #d0d7de; stroke-width: 0.5; }
  </style>
  <rect width="100%" height="100%" fill="white"/>
  <text x="400.0" y="25" text-anchor="middle" class="title">Binary Encode Throughput — LogRecord</text>
  <rect x="140" y="35" width="14" height="14" rx="2" fill="#4C78A8"/>
  <text x="158" y="46" class="legend-text">buffa</text>
  <rect x="209.5" y="35" width="14" height="14" rx="2" fill="#72B7B2"/>
  <text x="227.5" y="46" class="legend-text">buffa (view)</text>
  <rect x="331.5" y="35" width="14" height="14" rx="2" fill="#F58518"/>
  <text x="349.5" y="46" class="legend-text">prost</text>
  <rect x="401.0" y="35" width="14" height="14" rx="2" fill="#E45756"/>
  <text x="419.0" y="46" class="legend-text">protobuf-v4</text>
  <rect x="515.5" y="35" width="14" height="14" rx="2" fill="#54A24B"/>
  <text x="533.5" y="46" class="legend-text">Go</text>
  <line x1="140.0" y1="80" x2="140.0" y2="206" class="grid"/>
  <text x="140.0" y="221" text-anchor="middle" class="axis-label">0</text>
  <line x1="256.0" y1="80" x2="256.0" y2="206" class="grid"/>
  <text x="256.0" y="221" text-anchor="middle" class="axis-label">1,000</text>
  <line x1="372.0" y1="80" x2="372.0" y2="206" class="grid"/>
  <text x="372.0" y="221" text-anchor="middle" class="axis-label">2,000</text>
  <line x1="488.0" y1="80" x2="488.0" y2="206" class="grid"/>
  <text x="488.0" y="221" text-anchor="middle" class="axis-label">3,000</text>
  <line x1="604.0" y1="80" x2="604.0" y2="206" class="grid"/>
  <text x="604.0" y="221" text-anchor="middle" class="axis-label">4,000</text>
  <line x1="720.0" y1="80" x2="720.0" y2="206" class="grid"/>
  <text x="720.0" y="221" text-anchor="middle" class="axis-label">5,000</text>
  <text x="430.0" y="236" text-anchor="middle" class="axis-label">MiB/s</text>
  <text x="130" y="147.0" text-anchor="end" class="label">LogRecord</text>
  <rect x="140" y="80.0" width="467.3" height="22" rx="2" fill="#4C78A8"/>
  <text x="611.3" y="95.0" class="value">4,028</text>
  <rect x="140" y="106.0" width="545.5" height="22" rx="2" fill="#72B7B2"/>
  <text x="689.5" y="121.0" class="value">4,702</text>
  <rect x="140" y="132.0" width="361.5" height="22" rx="2" fill="#F58518"/>
  <text x="505.5" y="147.0" class="value">3,116</text>
  <rect x="140" y="158.0" width="191.6" height="22" rx="2" fill="#E45756"/>
  <text x="335.6" y="173.0" class="value">1,651</text>
  <rect x="140" y="184.0" width="35.3" height="22" rx="2" fill="#54A24B"/>
  <text x="179.3" y="199.0" class="value">304</text>
</svg>
