<svg xmlns="http://www.w3.org/2000/svg" width="800" height="565" viewBox="0 0 800 565">
  <style>
    text { font-family: -apple-system, BlinkMacSystemFont, "Segoe UI", Helvetica, Arial, sans-serif; }
    .title { font-size: 16px; font-weight: 600; fill: #24292f; }
    .label { font-size: 12px; fill: #24292f; }
    .value { font-size: 11px; fill: #57606a; }
    .axis-label { font-size: 11px; fill: #57606a; }
    .legend-text { font-size: 12px; fill: #24292f; }
    .grid { stroke: #d0d7de; stroke-width: 0.5; }
  </style>
  <rect width="100%" height="100%" fill="white"/>
  <text x="400.0" y="25" text-anchor="middle" class="title">JSON Decode Throughput</text>
  <rect x="140" y="35" width="14" height="14" rx="2" fill="#4C78A8"/>
  <text x="158" y="46" class="legend-text">buffa</text>
  <rect x="209.5" y="35" width="14" height="14" rx="2" fill="#F58518"/>
  <text x="227.5" y="46" class="legend-text">prost</text>
  <rect x="279.0" y="35" width="14" height="14" rx="2" fill="#54A24B"/>
  <text x="297.0" y="46" class="legend-text">Go</text>
  <line x1="140.0" y1="80" x2="140.0" y2="530" class="grid"/>
  <text x="140.0" y="545" text-anchor="middle" class="axis-label">0</text>
  <line x1="256.0" y1="80" x2="256.0" y2="530" class="grid"/>
  <text x="256.0" y="545" text-anchor="middle" class="axis-label">400</text>
  <line x1="372.0" y1="80" x2="372.0" y2="530" class="grid"/>
  <text x="372.0" y="545" text-anchor="middle" class="axis-label">800</text>
  <line x1="488.0" y1="80" x2="488.0" y2="530" class="grid"/>
  <text x="488.0" y="545" text-anchor="middle" class="axis-label">1.2k</text>
  <line x1="604.0" y1="80" x2="604.0" y2="530" class="grid"/>
  <text x="604.0" y="545" text-anchor="middle" class="axis-label">1.6k</text>
  <line x1="720.0" y1="80" x2="720.0" y2="530" class="grid"/>
  <text x="720.0" y="545" text-anchor="middle" class="axis-label">2.0k</text>
  <text x="430.0" y="560" text-anchor="middle" class="axis-label">MiB/s</text>
  <text x="130" y="121.0" text-anchor="end" class="label">ApiResponse</text>
  <rect x="140" y="80.0" width="204.7" height="22" rx="2" fill="#4C78A8"/>
  <text x="348.7" y="95.0" class="value">705</text>
  <rect x="140" y="106.0" width="87.8" height="22" rx="2" fill="#F58518"/>
  <text x="231.8" y="121.0" class="value">302</text>
  <rect x="140" y="132.0" width="20.4" height="22" rx="2" fill="#54A24B"/>
  <text x="164.4" y="147.0" class="value">70</text>
  <text x="130" y="215.0" text-anchor="end" class="label">LogRecord</text>
  <rect x="140" y="174.0" width="219.4" height="22" rx="2" fill="#4C78A8"/>
  <text x="363.4" y="189.0" class="value">756</text>
  <rect x="140" y="200.0" width="201.8" height="22" rx="2" fill="#F58518"/>
  <text x="345.8" y="215.0" class="value">695</text>
  <rect x="140" y="226.0" width="31.9" height="22" rx="2" fill="#54A24B"/>
  <text x="175.9" y="241.0" class="value">110</text>
  <text x="130" y="309.0" text-anchor="end" class="label">AnalyticsEvent</text>
  <rect x="140" y="268.0" width="77.7" height="22" rx="2" fill="#4C78A8"/>
  <text x="221.7" y="283.0" class="value">268</text>
  <rect x="140" y="294.0" width="67.7" height="22" rx="2" fill="#F58518"/>
  <text x="211.7" y="309.0" class="value">233</text>
  <rect x="140" y="320.0" width="13.4" height="22" rx="2" fill="#54A24B"/>
  <text x="157.4" y="335.0" class="value">46</text>
  <text x="130" y="403.0" text-anchor="end" class="label">GoogleMessage1</text>
  <rect x="140" y="362.0" width="185.6" height="22" rx="2" fill="#4C78A8"/>
  <text x="329.6" y="377.0" class="value">639</text>
  <rect x="140" y="388.0" width="74.9" height="22" rx="2" fill="#F58518"/>
  <text x="218.9" y="403.0" class="value">258</text>
  <rect x="140" y="414.0" width="21.1" height="22" rx="2" fill="#54A24B"/>
  <text x="165.1" y="429.0" class="value">72</text>
  <text x="130" y="497.0" text-anchor="end" class="label">MediaFrame</text>
  <rect x="140" y="456.0" width="563.3" height="22" rx="2" fill="#4C78A8"/>
  <text x="707.3" y="471.0" class="value">1,942</text>
  <rect x="140" y="482.0" width="566.7" height="22" rx="2" fill="#F58518"/>
  <text x="710.7" y="497.0" class="value">1,954</text>
  <rect x="140" y="508.0" width="1.0" height="22" rx="2" fill="#54A24B"/>
  <text x="145.0" y="523.0" class="value">0</text>
</svg>
