<svg xmlns="http://www.w3.org/2000/svg" width="776" height="420" viewBox="0 0 776 420">
  <style>
    text { font-family: -apple-system, BlinkMacSystemFont, "Segoe UI", Helvetica, Arial, sans-serif; }
    .title { font-size: 15px; font-weight: 600; fill: #24292f; }
    .axis-label { font-size: 11px; fill: #57606a; }
    .legend-text { font-size: 12px; fill: #24292f; }
    .grid { stroke: #d0d7de; stroke-width: 0.5; }
    .baseline { stroke: #8c959f; stroke-width: 1; stroke-dasharray: 4 3; }
    .noise-band { fill: #b1bac4; opacity: 0.18; }
    .footnote { font-size: 11px; fill: #57606a; }
  </style>
  <rect width="100%" height="100%" fill="white"/>
  <rect x="56" y="249.7" width="560" height="45.7" class="noise-band"/>
  <text x="336.0" y="26" text-anchor="middle" class="title">View decode — throughput vs each message’s first release (%)</text>
  <line x1="56" y1="364.0" x2="616" y2="364.0" class="grid"/>
  <text x="48" y="368.0" text-anchor="end" class="axis-label">80%</text>
  <line x1="56" y1="318.3" x2="616" y2="318.3" class="grid"/>
  <text x="48" y="322.3" text-anchor="end" class="axis-label">90%</text>
  <line x1="56" y1="272.6" x2="616" y2="272.6" class="grid"/>
  <text x="48" y="276.6" text-anchor="end" class="axis-label">100%</text>
  <line x1="56" y1="226.9" x2="616" y2="226.9" class="grid"/>
  <text x="48" y="230.9" text-anchor="end" class="axis-label">110%</text>
  <line x1="56" y1="181.1" x2="616" y2="181.1" class="grid"/>
  <text x="48" y="185.1" text-anchor="end" class="axis-label">120%</text>
  <line x1="56" y1="135.4" x2="616" y2="135.4" class="grid"/>
  <text x="48" y="139.4" text-anchor="end" class="axis-label">130%</text>
  <line x1="56" y1="89.7" x2="616" y2="89.7" class="grid"/>
  <text x="48" y="93.7" text-anchor="end" class="axis-label">140%</text>
  <line x1="56" y1="44.0" x2="616" y2="44.0" class="grid"/>
  <text x="48" y="48.0" text-anchor="end" class="axis-label">150%</text>
  <line x1="56" y1="272.6" x2="616" y2="272.6" class="baseline"/>
  <text x="56.0" y="382" text-anchor="middle" class="axis-label">v0.1.0</text>
  <text x="118.2" y="382" text-anchor="middle" class="axis-label">v0.2.0</text>
  <text x="180.4" y="382" text-anchor="middle" class="axis-label">v0.3.0</text>
  <text x="242.7" y="382" text-anchor="middle" class="axis-label">v0.4.0</text>
  <text x="304.9" y="382" text-anchor="middle" class="axis-label">v0.5.0</text>
  <text x="367.1" y="382" text-anchor="middle" class="axis-label">v0.6.0</text>
  <text x="429.3" y="382" text-anchor="middle" class="axis-label">v0.7.0</text>
  <text x="491.6" y="382" text-anchor="middle" class="axis-label">v0.7.1</text>
  <text x="553.8" y="382" text-anchor="middle" class="axis-label">v0.8.0</text>
  <text x="616.0" y="382" text-anchor="middle" class="axis-label">v0.9.0</text>
  <path d="M56.0,272.6 L118.2,276.9 L180.4,235.5 L242.7,232.3 L304.9,233.1 L367.1,236.6 L429.3,246.2 L491.6,245.6 L553.8,208.5 L616.0,188.9" fill="none" stroke="#4C78A8" stroke-width="2"/>
  <circle cx="56.0" cy="272.6" r="3" fill="#4C78A8"/>
  <circle cx="118.2" cy="276.9" r="3" fill="#4C78A8"/>
  <circle cx="180.4" cy="235.5" r="3" fill="#4C78A8"/>
  <circle cx="242.7" cy="232.3" r="3" fill="#4C78A8"/>
  <circle cx="304.9" cy="233.1" r="3" fill="#4C78A8"/>
  <circle cx="367.1" cy="236.6" r="3" fill="#4C78A8"/>
  <circle cx="429.3" cy="246.2" r="3" fill="#4C78A8"/>
  <circle cx="491.6" cy="245.6" r="3" fill="#4C78A8"/>
  <circle cx="553.8" cy="208.5" r="3" fill="#4C78A8"/>
  <circle cx="616.0" cy="188.9" r="3" fill="#4C78A8"/>
  <path d="M56.0,272.6 L118.2,274.0 L180.4,250.4 L242.7,264.3 L304.9,261.2 L367.1,272.2 L429.3,257.9 L491.6,255.9 L553.8,176.2 L616.0,165.3" fill="none" stroke="#F58518" stroke-width="2"/>
  <circle cx="56.0" cy="272.6" r="3" fill="#F58518"/>
  <circle cx="118.2" cy="274.0" r="3" fill="#F58518"/>
  <circle cx="180.4" cy="250.4" r="3" fill="#F58518"/>
  <circle cx="242.7" cy="264.3" r="3" fill="#F58518"/>
  <circle cx="304.9" cy="261.2" r="3" fill="#F58518"/>
  <circle cx="367.1" cy="272.2" r="3" fill="#F58518"/>
  <circle cx="429.3" cy="257.9" r="3" fill="#F58518"/>
  <circle cx="491.6" cy="255.9" r="3" fill="#F58518"/>
  <circle cx="553.8" cy="176.2" r="3" fill="#F58518"/>
  <circle cx="616.0" cy="165.3" r="3" fill="#F58518"/>
  <path d="M56.0,272.6 L118.2,273.8 L180.4,267.5 L242.7,259.9 L304.9,262.1 L367.1,262.3 L429.3,270.4 L491.6,263.5 L553.8,169.9 L616.0,164.6" fill="none" stroke="#54A24B" stroke-width="2"/>
  <circle cx="56.0" cy="272.6" r="3" fill="#54A24B"/>
  <circle cx="118.2" cy="273.8" r="3" fill="#54A24B"/>
  <circle cx="180.4" cy="267.5" r="3" fill="#54A24B"/>
  <circle cx="242.7" cy="259.9" r="3" fill="#54A24B"/>
  <circle cx="304.9" cy="262.1" r="3" fill="#54A24B"/>
  <circle cx="367.1" cy="262.3" r="3" fill="#54A24B"/>
  <circle cx="429.3" cy="270.4" r="3" fill="#54A24B"/>
  <circle cx="491.6" cy="263.5" r="3" fill="#54A24B"/>
  <circle cx="553.8" cy="169.9" r="3" fill="#54A24B"/>
  <circle cx="616.0" cy="164.6" r="3" fill="#54A24B"/>
  <path d="M56.0,272.6 L118.2,277.9 L180.4,249.3 L242.7,246.0 L304.9,249.3 L367.1,246.4 L429.3,257.1 L491.6,256.9 L553.8,298.2 L616.0,333.6" fill="none" stroke="#E45756" stroke-width="2"/>
  <circle cx="56.0" cy="272.6" r="3" fill="#E45756"/>
  <circle cx="118.2" cy="277.9" r="3" fill="#E45756"/>
  <circle cx="180.4" cy="249.3" r="3" fill="#E45756"/>
  <circle cx="242.7" cy="246.0" r="3" fill="#E45756"/>
  <circle cx="304.9" cy="249.3" r="3" fill="#E45756"/>
  <circle cx="367.1" cy="246.4" r="3" fill="#E45756"/>
  <circle cx="429.3" cy="257.1" r="3" fill="#E45756"/>
  <circle cx="491.6" cy="256.9" r="3" fill="#E45756"/>
  <circle cx="553.8" cy="298.2" r="3" fill="#E45756"/>
  <circle cx="616.0" cy="333.6" r="3" fill="#E45756"/>
  <path d="M56.0,272.6 L118.2,281.0 L180.4,264.0 L242.7,259.3 L304.9,261.8 L367.1,257.9 L429.3,260.6 L491.6,253.1 L553.8,191.7 L616.0,235.9" fill="none" stroke="#72B7B2" stroke-width="2"/>
  <circle cx="56.0" cy="272.6" r="3" fill="#72B7B2"/>
  <circle cx="118.2" cy="281.0" r="3" fill="#72B7B2"/>
  <circle cx="180.4" cy="264.0" r="3" fill="#72B7B2"/>
  <circle cx="242.7" cy="259.3" r="3" fill="#72B7B2"/>
  <circle cx="304.9" cy="261.8" r="3" fill="#72B7B2"/>
  <circle cx="367.1" cy="257.9" r="3" fill="#72B7B2"/>
  <circle cx="429.3" cy="260.6" r="3" fill="#72B7B2"/>
  <circle cx="491.6" cy="253.1" r="3" fill="#72B7B2"/>
  <circle cx="553.8" cy="191.7" r="3" fill="#72B7B2"/>
  <circle cx="616.0" cy="235.9" r="3" fill="#72B7B2"/>
  <path d="M56.0,272.6 L118.2,263.7 L180.4,270.8 L242.7,277.9 L304.9,263.6 L367.1,274.5 L429.3,275.5 L491.6,82.5 L553.8,169.7 L616.0,65.3" fill="none" stroke="#B279A2" stroke-width="2"/>
  <circle cx="56.0" cy="272.6" r="3" fill="#B279A2"/>
  <circle cx="118.2" cy="263.7" r="3" fill="#B279A2"/>
  <circle cx="180.4" cy="270.8" r="3" fill="#B279A2"/>
  <circle cx="242.7" cy="277.9" r="3" fill="#B279A2"/>
  <circle cx="304.9" cy="263.6" r="3" fill="#B279A2"/>
  <circle cx="367.1" cy="274.5" r="3" fill="#B279A2"/>
  <circle cx="429.3" cy="275.5" r="3" fill="#B279A2"/>
  <circle cx="491.6" cy="82.5" r="3" fill="#B279A2"/>
  <circle cx="553.8" cy="169.7" r="3" fill="#B279A2"/>
  <circle cx="616.0" cy="65.3" r="3" fill="#B279A2"/>
  <path d="M56.0,272.6 L118.2,307.1 L180.4,228.4 L242.7,272.0 L304.9,298.5 L367.1,311.0 L429.3,297.4 L491.6,299.7 L553.8,334.7 L616.0,290.6" fill="none" stroke="#EECA3B" stroke-width="2"/>
  <circle cx="56.0" cy="272.6" r="3" fill="#EECA3B"/>
  <circle cx="118.2" cy="307.1" r="3" fill="#EECA3B"/>
  <circle cx="180.4" cy="228.4" r="3" fill="#EECA3B"/>
  <circle cx="242.7" cy="272.0" r="3" fill="#EECA3B"/>
  <circle cx="304.9" cy="298.5" r="3" fill="#EECA3B"/>
  <circle cx="367.1" cy="311.0" r="3" fill="#EECA3B"/>
  <circle cx="429.3" cy="297.4" r="3" fill="#EECA3B"/>
  <circle cx="491.6" cy="299.7" r="3" fill="#EECA3B"/>
  <circle cx="553.8" cy="334.7" r="3" fill="#EECA3B"/>
  <circle cx="616.0" cy="290.6" r="3" fill="#EECA3B"/>
  <path d="M56.0,272.6 L118.2,278.7 L180.4,251.5 L242.7,260.3 L304.9,255.0 L367.1,242.3 L429.3,265.7 L491.6,176.1 L553.8,352.0 L616.0,191.3" fill="none" stroke="#9D755D" stroke-width="2"/>
  <circle cx="56.0" cy="272.6" r="3" fill="#9D755D"/>
  <circle cx="118.2" cy="278.7" r="3" fill="#9D755D"/>
  <circle cx="180.4" cy="251.5" r="3" fill="#9D755D"/>
  <circle cx="242.7" cy="260.3" r="3" fill="#9D755D"/>
  <circle cx="304.9" cy="255.0" r="3" fill="#9D755D"/>
  <circle cx="367.1" cy="242.3" r="3" fill="#9D755D"/>
  <circle cx="429.3" cy="265.7" r="3" fill="#9D755D"/>
  <circle cx="491.6" cy="176.1" r="3" fill="#9D755D"/>
  <circle cx="553.8" cy="352.0" r="3" fill="#9D755D"/>
  <circle cx="616.0" cy="191.3" r="3" fill="#9D755D"/>
  <rect x="632" y="50" width="12" height="12" rx="2" fill="#4C78A8"/>
  <text x="650" y="61" class="legend-text">ApiResponse</text>
  <rect x="632" y="72" width="12" height="12" rx="2" fill="#F58518"/>
  <text x="650" y="83" class="legend-text">LogRecord</text>
  <rect x="632" y="94" width="12" height="12" rx="2" fill="#54A24B"/>
  <text x="650" y="105" class="legend-text">AnalyticsEvent</text>
  <rect x="632" y="116" width="12" height="12" rx="2" fill="#E45756"/>
  <text x="650" y="127" class="legend-text">GoogleMessage1</text>
  <rect x="632" y="138" width="12" height="12" rx="2" fill="#72B7B2"/>
  <text x="650" y="149" class="legend-text">MediaFrame</text>
  <rect x="632" y="160" width="12" height="12" rx="2" fill="#B279A2"/>
  <text x="650" y="171" class="legend-text">PackedTile</text>
  <rect x="632" y="182" width="12" height="12" rx="2" fill="#EECA3B"/>
  <text x="650" y="193" class="legend-text">TriMesh</text>
  <rect x="632" y="204" width="12" height="12" rx="2" fill="#9D755D"/>
  <text x="650" y="215" class="legend-text">ColumnBatch</text>
  <text x="56" y="406.0" class="footnote">Shaded band: ±5% run-to-run noise floor — a line staying inside it moved by less than the noise floor.</text>
</svg>
