<svg xmlns="http://www.w3.org/2000/svg" width="776" height="420" viewBox="0 0 776 420">
  <style>
    text { font-family: -apple-system, BlinkMacSystemFont, "Segoe UI", Helvetica, Arial, sans-serif; }
    .title { font-size: 15px; font-weight: 600; fill: #24292f; }
    .axis-label { font-size: 11px; fill: #57606a; }
    .legend-text { font-size: 12px; fill: #24292f; }
    .grid { stroke: #d0d7de; stroke-width: 0.5; }
    .baseline { stroke: #8c959f; stroke-width: 1; stroke-dasharray: 4 3; }
  </style>
  <rect width="100%" height="100%" fill="white"/>
  <text x="336.0" y="26" text-anchor="middle" class="title">Binary decode — throughput vs each message’s first release (%)</text>
  <line x1="56" y1="364.0" x2="616" y2="364.0" class="grid"/>
  <text x="48" y="368.0" text-anchor="end" class="axis-label">90%</text>
  <line x1="56" y1="284.0" x2="616" y2="284.0" class="grid"/>
  <text x="48" y="288.0" text-anchor="end" class="axis-label">95%</text>
  <line x1="56" y1="204.0" x2="616" y2="204.0" class="grid"/>
  <text x="48" y="208.0" text-anchor="end" class="axis-label">100%</text>
  <line x1="56" y1="124.0" x2="616" y2="124.0" class="grid"/>
  <text x="48" y="128.0" text-anchor="end" class="axis-label">105%</text>
  <line x1="56" y1="44.0" x2="616" y2="44.0" class="grid"/>
  <text x="48" y="48.0" text-anchor="end" class="axis-label">110%</text>
  <line x1="56" y1="204.0" x2="616" y2="204.0" class="baseline"/>
  <text x="56.0" y="382" text-anchor="middle" class="axis-label">v0.1.0</text>
  <text x="136.0" y="382" text-anchor="middle" class="axis-label">v0.2.0</text>
  <text x="216.0" y="382" text-anchor="middle" class="axis-label">v0.3.0</text>
  <text x="296.0" y="382" text-anchor="middle" class="axis-label">v0.4.0</text>
  <text x="376.0" y="382" text-anchor="middle" class="axis-label">v0.5.0</text>
  <text x="456.0" y="382" text-anchor="middle" class="axis-label">v0.6.0</text>
  <text x="536.0" y="382" text-anchor="middle" class="axis-label">v0.7.0</text>
  <text x="616.0" y="382" text-anchor="middle" class="axis-label">v0.7.1</text>
  <path d="M56.0,204.0 L136.0,230.4 L216.0,253.4 L296.0,243.1 L376.0,170.2 L456.0,259.2 L536.0,224.6 L616.0,183.1" fill="none" stroke="#4C78A8" stroke-width="2"/>
  <circle cx="56.0" cy="204.0" r="3" fill="#4C78A8"/>
  <circle cx="136.0" cy="230.4" r="3" fill="#4C78A8"/>
  <circle cx="216.0" cy="253.4" r="3" fill="#4C78A8"/>
  <circle cx="296.0" cy="243.1" r="3" fill="#4C78A8"/>
  <circle cx="376.0" cy="170.2" r="3" fill="#4C78A8"/>
  <circle cx="456.0" cy="259.2" r="3" fill="#4C78A8"/>
  <circle cx="536.0" cy="224.6" r="3" fill="#4C78A8"/>
  <circle cx="616.0" cy="183.1" r="3" fill="#4C78A8"/>
  <path d="M56.0,204.0 L136.0,216.7 L216.0,83.4 L296.0,104.5 L376.0,144.3 L456.0,83.3 L536.0,146.0 L616.0,152.9" fill="none" stroke="#F58518" stroke-width="2"/>
  <circle cx="56.0" cy="204.0" r="3" fill="#F58518"/>
  <circle cx="136.0" cy="216.7" r="3" fill="#F58518"/>
  <circle cx="216.0" cy="83.4" r="3" fill="#F58518"/>
  <circle cx="296.0" cy="104.5" r="3" fill="#F58518"/>
  <circle cx="376.0" cy="144.3" r="3" fill="#F58518"/>
  <circle cx="456.0" cy="83.3" r="3" fill="#F58518"/>
  <circle cx="536.0" cy="146.0" r="3" fill="#F58518"/>
  <circle cx="616.0" cy="152.9" r="3" fill="#F58518"/>
  <path d="M56.0,204.0 L136.0,203.6 L216.0,198.5 L296.0,176.7 L376.0,193.4 L456.0,199.2 L536.0,177.9 L616.0,180.0" fill="none" stroke="#54A24B" stroke-width="2"/>
  <circle cx="56.0" cy="204.0" r="3" fill="#54A24B"/>
  <circle cx="136.0" cy="203.6" r="3" fill="#54A24B"/>
  <circle cx="216.0" cy="198.5" r="3" fill="#54A24B"/>
  <circle cx="296.0" cy="176.7" r="3" fill="#54A24B"/>
  <circle cx="376.0" cy="193.4" r="3" fill="#54A24B"/>
  <circle cx="456.0" cy="199.2" r="3" fill="#54A24B"/>
  <circle cx="536.0" cy="177.9" r="3" fill="#54A24B"/>
  <circle cx="616.0" cy="180.0" r="3" fill="#54A24B"/>
  <path d="M56.0,204.0 L136.0,239.6 L216.0,105.1 L296.0,170.9 L376.0,130.4 L456.0,127.8 L536.0,259.5 L616.0,173.9" fill="none" stroke="#E45756" stroke-width="2"/>
  <circle cx="56.0" cy="204.0" r="3" fill="#E45756"/>
  <circle cx="136.0" cy="239.6" r="3" fill="#E45756"/>
  <circle cx="216.0" cy="105.1" r="3" fill="#E45756"/>
  <circle cx="296.0" cy="170.9" r="3" fill="#E45756"/>
  <circle cx="376.0" cy="130.4" r="3" fill="#E45756"/>
  <circle cx="456.0" cy="127.8" r="3" fill="#E45756"/>
  <circle cx="536.0" cy="259.5" r="3" fill="#E45756"/>
  <circle cx="616.0" cy="173.9" r="3" fill="#E45756"/>
  <path d="M56.0,204.0 L136.0,246.9 L216.0,229.6 L296.0,219.6 L376.0,217.2 L456.0,204.5 L536.0,234.0 L616.0,238.3" fill="none" stroke="#72B7B2" stroke-width="2"/>
  <circle cx="56.0" cy="204.0" r="3" fill="#72B7B2"/>
  <circle cx="136.0" cy="246.9" r="3" fill="#72B7B2"/>
  <circle cx="216.0" cy="229.6" r="3" fill="#72B7B2"/>
  <circle cx="296.0" cy="219.6" r="3" fill="#72B7B2"/>
  <circle cx="376.0" cy="217.2" r="3" fill="#72B7B2"/>
  <circle cx="456.0" cy="204.5" r="3" fill="#72B7B2"/>
  <circle cx="536.0" cy="234.0" r="3" fill="#72B7B2"/>
  <circle cx="616.0" cy="238.3" r="3" fill="#72B7B2"/>
  <path d="M56.0,204.0 L136.0,209.4 L216.0,214.2 L296.0,275.6 L376.0,278.6 L456.0,218.6 L536.0,286.5 L616.0,290.1" fill="none" stroke="#B279A2" stroke-width="2"/>
  <circle cx="56.0" cy="204.0" r="3" fill="#B279A2"/>
  <circle cx="136.0" cy="209.4" r="3" fill="#B279A2"/>
  <circle cx="216.0" cy="214.2" r="3" fill="#B279A2"/>
  <circle cx="296.0" cy="275.6" r="3" fill="#B279A2"/>
  <circle cx="376.0" cy="278.6" r="3" fill="#B279A2"/>
  <circle cx="456.0" cy="218.6" r="3" fill="#B279A2"/>
  <circle cx="536.0" cy="286.5" r="3" fill="#B279A2"/>
  <circle cx="616.0" cy="290.1" r="3" fill="#B279A2"/>
  <rect x="632" y="50" width="12" height="12" rx="2" fill="#4C78A8"/>
  <text x="650" y="61" class="legend-text">ApiResponse</text>
  <rect x="632" y="72" width="12" height="12" rx="2" fill="#F58518"/>
  <text x="650" y="83" class="legend-text">LogRecord</text>
  <rect x="632" y="94" width="12" height="12" rx="2" fill="#54A24B"/>
  <text x="650" y="105" class="legend-text">AnalyticsEvent</text>
  <rect x="632" y="116" width="12" height="12" rx="2" fill="#E45756"/>
  <text x="650" y="127" class="legend-text">GoogleMessage1</text>
  <rect x="632" y="138" width="12" height="12" rx="2" fill="#72B7B2"/>
  <text x="650" y="149" class="legend-text">MediaFrame</text>
  <rect x="632" y="160" width="12" height="12" rx="2" fill="#B279A2"/>
  <text x="650" y="171" class="legend-text">PackedTile</text>
</svg>
