<svg xmlns="http://www.w3.org/2000/svg" width="776" height="420" viewBox="0 0 776 420">
  <style>
    text { font-family: -apple-system, BlinkMacSystemFont, "Segoe UI", Helvetica, Arial, sans-serif; }
    .title { font-size: 15px; font-weight: 600; fill: #24292f; }
    .axis-label { font-size: 11px; fill: #57606a; }
    .legend-text { font-size: 12px; fill: #24292f; }
    .grid { stroke: #d0d7de; stroke-width: 0.5; }
    .baseline { stroke: #8c959f; stroke-width: 1; stroke-dasharray: 4 3; }
  </style>
  <rect width="100%" height="100%" fill="white"/>
  <text x="336.0" y="26" text-anchor="middle" class="title">Binary encode — throughput vs each message’s first release (%)</text>
  <line x1="56" y1="364.0" x2="616" y2="364.0" class="grid"/>
  <text x="48" y="368.0" text-anchor="end" class="axis-label">90%</text>
  <line x1="56" y1="310.7" x2="616" y2="310.7" class="grid"/>
  <text x="48" y="314.7" text-anchor="end" class="axis-label">95%</text>
  <line x1="56" y1="257.3" x2="616" y2="257.3" class="grid"/>
  <text x="48" y="261.3" text-anchor="end" class="axis-label">100%</text>
  <line x1="56" y1="204.0" x2="616" y2="204.0" class="grid"/>
  <text x="48" y="208.0" text-anchor="end" class="axis-label">105%</text>
  <line x1="56" y1="150.7" x2="616" y2="150.7" class="grid"/>
  <text x="48" y="154.7" text-anchor="end" class="axis-label">110%</text>
  <line x1="56" y1="97.3" x2="616" y2="97.3" class="grid"/>
  <text x="48" y="101.3" text-anchor="end" class="axis-label">115%</text>
  <line x1="56" y1="44.0" x2="616" y2="44.0" class="grid"/>
  <text x="48" y="48.0" text-anchor="end" class="axis-label">120%</text>
  <line x1="56" y1="257.3" x2="616" y2="257.3" class="baseline"/>
  <text x="56.0" y="382" text-anchor="middle" class="axis-label">v0.1.0</text>
  <text x="136.0" y="382" text-anchor="middle" class="axis-label">v0.2.0</text>
  <text x="216.0" y="382" text-anchor="middle" class="axis-label">v0.3.0</text>
  <text x="296.0" y="382" text-anchor="middle" class="axis-label">v0.4.0</text>
  <text x="376.0" y="382" text-anchor="middle" class="axis-label">v0.5.0</text>
  <text x="456.0" y="382" text-anchor="middle" class="axis-label">v0.6.0</text>
  <text x="536.0" y="382" text-anchor="middle" class="axis-label">v0.7.0</text>
  <text x="616.0" y="382" text-anchor="middle" class="axis-label">v0.7.1</text>
  <path d="M56.0,257.3 L136.0,257.3 L216.0,101.9 L296.0,114.9 L376.0,267.6 L456.0,144.4 L536.0,142.7 L616.0,237.0" fill="none" stroke="#4C78A8" stroke-width="2"/>
  <circle cx="56.0" cy="257.3" r="3" fill="#4C78A8"/>
  <circle cx="136.0" cy="257.3" r="3" fill="#4C78A8"/>
  <circle cx="216.0" cy="101.9" r="3" fill="#4C78A8"/>
  <circle cx="296.0" cy="114.9" r="3" fill="#4C78A8"/>
  <circle cx="376.0" cy="267.6" r="3" fill="#4C78A8"/>
  <circle cx="456.0" cy="144.4" r="3" fill="#4C78A8"/>
  <circle cx="536.0" cy="142.7" r="3" fill="#4C78A8"/>
  <circle cx="616.0" cy="237.0" r="3" fill="#4C78A8"/>
  <path d="M56.0,257.3 L136.0,266.3 L216.0,137.8 L296.0,166.1 L376.0,272.2 L456.0,147.4 L536.0,151.0 L616.0,276.3" fill="none" stroke="#F58518" stroke-width="2"/>
  <circle cx="56.0" cy="257.3" r="3" fill="#F58518"/>
  <circle cx="136.0" cy="266.3" r="3" fill="#F58518"/>
  <circle cx="216.0" cy="137.8" r="3" fill="#F58518"/>
  <circle cx="296.0" cy="166.1" r="3" fill="#F58518"/>
  <circle cx="376.0" cy="272.2" r="3" fill="#F58518"/>
  <circle cx="456.0" cy="147.4" r="3" fill="#F58518"/>
  <circle cx="536.0" cy="151.0" r="3" fill="#F58518"/>
  <circle cx="616.0" cy="276.3" r="3" fill="#F58518"/>
  <path d="M56.0,257.3 L136.0,259.0 L216.0,215.1 L296.0,321.7 L376.0,354.8 L456.0,355.5 L536.0,323.6 L616.0,331.3" fill="none" stroke="#54A24B" stroke-width="2"/>
  <circle cx="56.0" cy="257.3" r="3" fill="#54A24B"/>
  <circle cx="136.0" cy="259.0" r="3" fill="#54A24B"/>
  <circle cx="216.0" cy="215.1" r="3" fill="#54A24B"/>
  <circle cx="296.0" cy="321.7" r="3" fill="#54A24B"/>
  <circle cx="376.0" cy="354.8" r="3" fill="#54A24B"/>
  <circle cx="456.0" cy="355.5" r="3" fill="#54A24B"/>
  <circle cx="536.0" cy="323.6" r="3" fill="#54A24B"/>
  <circle cx="616.0" cy="331.3" r="3" fill="#54A24B"/>
  <path d="M56.0,257.3 L136.0,261.0 L216.0,178.9 L296.0,78.1 L376.0,241.4 L456.0,105.1 L536.0,161.9 L616.0,254.2" fill="none" stroke="#E45756" stroke-width="2"/>
  <circle cx="56.0" cy="257.3" r="3" fill="#E45756"/>
  <circle cx="136.0" cy="261.0" r="3" fill="#E45756"/>
  <circle cx="216.0" cy="178.9" r="3" fill="#E45756"/>
  <circle cx="296.0" cy="78.1" r="3" fill="#E45756"/>
  <circle cx="376.0" cy="241.4" r="3" fill="#E45756"/>
  <circle cx="456.0" cy="105.1" r="3" fill="#E45756"/>
  <circle cx="536.0" cy="161.9" r="3" fill="#E45756"/>
  <circle cx="616.0" cy="254.2" r="3" fill="#E45756"/>
  <path d="M296.0,257.3 L376.0,204.9 L456.0,248.0 L536.0,261.2 L616.0,241.3" fill="none" stroke="#72B7B2" stroke-width="2"/>
  <circle cx="296.0" cy="257.3" r="3" fill="#72B7B2"/>
  <circle cx="376.0" cy="204.9" r="3" fill="#72B7B2"/>
  <circle cx="456.0" cy="248.0" r="3" fill="#72B7B2"/>
  <circle cx="536.0" cy="261.2" r="3" fill="#72B7B2"/>
  <circle cx="616.0" cy="241.3" r="3" fill="#72B7B2"/>
  <path d="M616.0,257.3" fill="none" stroke="#B279A2" stroke-width="2"/>
  <circle cx="616.0" cy="257.3" r="3" fill="#B279A2"/>
  <rect x="632" y="50" width="12" height="12" rx="2" fill="#4C78A8"/>
  <text x="650" y="61" class="legend-text">ApiResponse</text>
  <rect x="632" y="72" width="12" height="12" rx="2" fill="#F58518"/>
  <text x="650" y="83" class="legend-text">LogRecord</text>
  <rect x="632" y="94" width="12" height="12" rx="2" fill="#54A24B"/>
  <text x="650" y="105" class="legend-text">AnalyticsEvent</text>
  <rect x="632" y="116" width="12" height="12" rx="2" fill="#E45756"/>
  <text x="650" y="127" class="legend-text">GoogleMessage1</text>
  <rect x="632" y="138" width="12" height="12" rx="2" fill="#72B7B2"/>
  <text x="650" y="149" class="legend-text">MediaFrame</text>
  <rect x="632" y="160" width="12" height="12" rx="2" fill="#B279A2"/>
  <text x="650" y="171" class="legend-text">PackedTile</text>
</svg>
