<svg xmlns="http://www.w3.org/2000/svg" width="776" height="420" viewBox="0 0 776 420">
  <style>
    text { font-family: -apple-system, BlinkMacSystemFont, "Segoe UI", Helvetica, Arial, sans-serif; }
    .title { font-size: 15px; font-weight: 600; fill: #24292f; }
    .axis-label { font-size: 11px; fill: #57606a; }
    .legend-text { font-size: 12px; fill: #24292f; }
    .grid { stroke: #d0d7de; stroke-width: 0.5; }
    .baseline { stroke: #8c959f; stroke-width: 1; stroke-dasharray: 4 3; }
    .noise-band { fill: #b1bac4; opacity: 0.18; }
    .footnote { font-size: 11px; fill: #57606a; }
  </style>
  <rect width="100%" height="100%" fill="white"/>
  <rect x="56" y="204.0" width="560" height="106.7" class="noise-band"/>
  <text x="336.0" y="26" text-anchor="middle" class="title">JSON encode — throughput vs each message’s first release (%)</text>
  <line x1="56" y1="364.0" x2="616" y2="364.0" class="grid"/>
  <text x="48" y="368.0" text-anchor="end" class="axis-label">90%</text>
  <line x1="56" y1="310.7" x2="616" y2="310.7" class="grid"/>
  <text x="48" y="314.7" text-anchor="end" class="axis-label">95%</text>
  <line x1="56" y1="257.3" x2="616" y2="257.3" class="grid"/>
  <text x="48" y="261.3" text-anchor="end" class="axis-label">100%</text>
  <line x1="56" y1="204.0" x2="616" y2="204.0" class="grid"/>
  <text x="48" y="208.0" text-anchor="end" class="axis-label">105%</text>
  <line x1="56" y1="150.7" x2="616" y2="150.7" class="grid"/>
  <text x="48" y="154.7" text-anchor="end" class="axis-label">110%</text>
  <line x1="56" y1="97.3" x2="616" y2="97.3" class="grid"/>
  <text x="48" y="101.3" text-anchor="end" class="axis-label">115%</text>
  <line x1="56" y1="44.0" x2="616" y2="44.0" class="grid"/>
  <text x="48" y="48.0" text-anchor="end" class="axis-label">120%</text>
  <line x1="56" y1="257.3" x2="616" y2="257.3" class="baseline"/>
  <text x="56.0" y="382" text-anchor="middle" class="axis-label">v0.1.0</text>
  <text x="118.2" y="382" text-anchor="middle" class="axis-label">v0.2.0</text>
  <text x="180.4" y="382" text-anchor="middle" class="axis-label">v0.3.0</text>
  <text x="242.7" y="382" text-anchor="middle" class="axis-label">v0.4.0</text>
  <text x="304.9" y="382" text-anchor="middle" class="axis-label">v0.5.0</text>
  <text x="367.1" y="382" text-anchor="middle" class="axis-label">v0.6.0</text>
  <text x="429.3" y="382" text-anchor="middle" class="axis-label">v0.7.0</text>
  <text x="491.6" y="382" text-anchor="middle" class="axis-label">v0.7.1</text>
  <text x="553.8" y="382" text-anchor="middle" class="axis-label">v0.8.0</text>
  <text x="616.0" y="382" text-anchor="middle" class="axis-label">v0.9.0</text>
  <path d="M56.0,257.3 L118.2,288.8 L180.4,251.8 L242.7,243.2 L304.9,248.8 L367.1,302.8 L429.3,252.1 L491.6,236.9 L553.8,234.8 L616.0,284.2" fill="none" stroke="#4C78A8" stroke-width="2"/>
  <circle cx="56.0" cy="257.3" r="3" fill="#4C78A8"/>
  <circle cx="118.2" cy="288.8" r="3" fill="#4C78A8"/>
  <circle cx="180.4" cy="251.8" r="3" fill="#4C78A8"/>
  <circle cx="242.7" cy="243.2" r="3" fill="#4C78A8"/>
  <circle cx="304.9" cy="248.8" r="3" fill="#4C78A8"/>
  <circle cx="367.1" cy="302.8" r="3" fill="#4C78A8"/>
  <circle cx="429.3" cy="252.1" r="3" fill="#4C78A8"/>
  <circle cx="491.6" cy="236.9" r="3" fill="#4C78A8"/>
  <circle cx="553.8" cy="234.8" r="3" fill="#4C78A8"/>
  <circle cx="616.0" cy="284.2" r="3" fill="#4C78A8"/>
  <path d="M56.0,257.3 L118.2,261.3 L180.4,257.8 L242.7,254.7 L304.9,248.0 L367.1,253.2 L429.3,259.5 L491.6,258.6 L553.8,255.6 L616.0,266.2" fill="none" stroke="#F58518" stroke-width="2"/>
  <circle cx="56.0" cy="257.3" r="3" fill="#F58518"/>
  <circle cx="118.2" cy="261.3" r="3" fill="#F58518"/>
  <circle cx="180.4" cy="257.8" r="3" fill="#F58518"/>
  <circle cx="242.7" cy="254.7" r="3" fill="#F58518"/>
  <circle cx="304.9" cy="248.0" r="3" fill="#F58518"/>
  <circle cx="367.1" cy="253.2" r="3" fill="#F58518"/>
  <circle cx="429.3" cy="259.5" r="3" fill="#F58518"/>
  <circle cx="491.6" cy="258.6" r="3" fill="#F58518"/>
  <circle cx="553.8" cy="255.6" r="3" fill="#F58518"/>
  <circle cx="616.0" cy="266.2" r="3" fill="#F58518"/>
  <path d="M56.0,257.3 L118.2,265.2 L180.4,256.0 L242.7,260.6 L304.9,263.8 L367.1,255.0 L429.3,256.4 L491.6,264.8 L553.8,256.4 L616.0,258.4" fill="none" stroke="#54A24B" stroke-width="2"/>
  <circle cx="56.0" cy="257.3" r="3" fill="#54A24B"/>
  <circle cx="118.2" cy="265.2" r="3" fill="#54A24B"/>
  <circle cx="180.4" cy="256.0" r="3" fill="#54A24B"/>
  <circle cx="242.7" cy="260.6" r="3" fill="#54A24B"/>
  <circle cx="304.9" cy="263.8" r="3" fill="#54A24B"/>
  <circle cx="367.1" cy="255.0" r="3" fill="#54A24B"/>
  <circle cx="429.3" cy="256.4" r="3" fill="#54A24B"/>
  <circle cx="491.6" cy="264.8" r="3" fill="#54A24B"/>
  <circle cx="553.8" cy="256.4" r="3" fill="#54A24B"/>
  <circle cx="616.0" cy="258.4" r="3" fill="#54A24B"/>
  <path d="M56.0,257.3 L118.2,238.2 L180.4,268.8 L242.7,249.9 L304.9,256.9 L367.1,299.4 L429.3,291.8 L491.6,272.8 L553.8,281.3 L616.0,266.6" fill="none" stroke="#E45756" stroke-width="2"/>
  <circle cx="56.0" cy="257.3" r="3" fill="#E45756"/>
  <circle cx="118.2" cy="238.2" r="3" fill="#E45756"/>
  <circle cx="180.4" cy="268.8" r="3" fill="#E45756"/>
  <circle cx="242.7" cy="249.9" r="3" fill="#E45756"/>
  <circle cx="304.9" cy="256.9" r="3" fill="#E45756"/>
  <circle cx="367.1" cy="299.4" r="3" fill="#E45756"/>
  <circle cx="429.3" cy="291.8" r="3" fill="#E45756"/>
  <circle cx="491.6" cy="272.8" r="3" fill="#E45756"/>
  <circle cx="553.8" cy="281.3" r="3" fill="#E45756"/>
  <circle cx="616.0" cy="266.6" r="3" fill="#E45756"/>
  <path d="M56.0,257.3 L118.2,256.4 L180.4,259.9 L242.7,250.8 L304.9,257.0 L367.1,253.3 L429.3,256.8 L491.6,257.4 L553.8,255.8 L616.0,263.1" fill="none" stroke="#72B7B2" stroke-width="2"/>
  <circle cx="56.0" cy="257.3" r="3" fill="#72B7B2"/>
  <circle cx="118.2" cy="256.4" r="3" fill="#72B7B2"/>
  <circle cx="180.4" cy="259.9" r="3" fill="#72B7B2"/>
  <circle cx="242.7" cy="250.8" r="3" fill="#72B7B2"/>
  <circle cx="304.9" cy="257.0" r="3" fill="#72B7B2"/>
  <circle cx="367.1" cy="253.3" r="3" fill="#72B7B2"/>
  <circle cx="429.3" cy="256.8" r="3" fill="#72B7B2"/>
  <circle cx="491.6" cy="257.4" r="3" fill="#72B7B2"/>
  <circle cx="553.8" cy="255.8" r="3" fill="#72B7B2"/>
  <circle cx="616.0" cy="263.1" r="3" fill="#72B7B2"/>
  <path d="M56.0,257.3 L118.2,252.3 L180.4,253.2 L242.7,294.8 L304.9,302.5 L367.1,296.2 L429.3,302.5 L491.6,294.3 L553.8,297.0 L616.0,337.6" fill="none" stroke="#B279A2" stroke-width="2"/>
  <circle cx="56.0" cy="257.3" r="3" fill="#B279A2"/>
  <circle cx="118.2" cy="252.3" r="3" fill="#B279A2"/>
  <circle cx="180.4" cy="253.2" r="3" fill="#B279A2"/>
  <circle cx="242.7" cy="294.8" r="3" fill="#B279A2"/>
  <circle cx="304.9" cy="302.5" r="3" fill="#B279A2"/>
  <circle cx="367.1" cy="296.2" r="3" fill="#B279A2"/>
  <circle cx="429.3" cy="302.5" r="3" fill="#B279A2"/>
  <circle cx="491.6" cy="294.3" r="3" fill="#B279A2"/>
  <circle cx="553.8" cy="297.0" r="3" fill="#B279A2"/>
  <circle cx="616.0" cy="337.6" r="3" fill="#B279A2"/>
  <path d="M56.0,257.3 L118.2,265.0 L180.4,261.5 L242.7,99.5 L304.9,98.1 L367.1,101.8 L429.3,91.0 L491.6,101.7 L553.8,100.1 L616.0,104.8" fill="none" stroke="#EECA3B" stroke-width="2"/>
  <circle cx="56.0" cy="257.3" r="3" fill="#EECA3B"/>
  <circle cx="118.2" cy="265.0" r="3" fill="#EECA3B"/>
  <circle cx="180.4" cy="261.5" r="3" fill="#EECA3B"/>
  <circle cx="242.7" cy="99.5" r="3" fill="#EECA3B"/>
  <circle cx="304.9" cy="98.1" r="3" fill="#EECA3B"/>
  <circle cx="367.1" cy="101.8" r="3" fill="#EECA3B"/>
  <circle cx="429.3" cy="91.0" r="3" fill="#EECA3B"/>
  <circle cx="491.6" cy="101.7" r="3" fill="#EECA3B"/>
  <circle cx="553.8" cy="100.1" r="3" fill="#EECA3B"/>
  <circle cx="616.0" cy="104.8" r="3" fill="#EECA3B"/>
  <path d="M56.0,257.3 L118.2,255.4 L180.4,261.8 L242.7,261.5 L304.9,254.7 L367.1,266.6 L429.3,260.0 L491.6,257.3 L553.8,256.0 L616.0,253.4" fill="none" stroke="#9D755D" stroke-width="2"/>
  <circle cx="56.0" cy="257.3" r="3" fill="#9D755D"/>
  <circle cx="118.2" cy="255.4" r="3" fill="#9D755D"/>
  <circle cx="180.4" cy="261.8" r="3" fill="#9D755D"/>
  <circle cx="242.7" cy="261.5" r="3" fill="#9D755D"/>
  <circle cx="304.9" cy="254.7" r="3" fill="#9D755D"/>
  <circle cx="367.1" cy="266.6" r="3" fill="#9D755D"/>
  <circle cx="429.3" cy="260.0" r="3" fill="#9D755D"/>
  <circle cx="491.6" cy="257.3" r="3" fill="#9D755D"/>
  <circle cx="553.8" cy="256.0" r="3" fill="#9D755D"/>
  <circle cx="616.0" cy="253.4" r="3" fill="#9D755D"/>
  <rect x="632" y="50" width="12" height="12" rx="2" fill="#4C78A8"/>
  <text x="650" y="61" class="legend-text">ApiResponse</text>
  <rect x="632" y="72" width="12" height="12" rx="2" fill="#F58518"/>
  <text x="650" y="83" class="legend-text">LogRecord</text>
  <rect x="632" y="94" width="12" height="12" rx="2" fill="#54A24B"/>
  <text x="650" y="105" class="legend-text">AnalyticsEvent</text>
  <rect x="632" y="116" width="12" height="12" rx="2" fill="#E45756"/>
  <text x="650" y="127" class="legend-text">GoogleMessage1</text>
  <rect x="632" y="138" width="12" height="12" rx="2" fill="#72B7B2"/>
  <text x="650" y="149" class="legend-text">MediaFrame</text>
  <rect x="632" y="160" width="12" height="12" rx="2" fill="#B279A2"/>
  <text x="650" y="171" class="legend-text">PackedTile</text>
  <rect x="632" y="182" width="12" height="12" rx="2" fill="#EECA3B"/>
  <text x="650" y="193" class="legend-text">TriMesh</text>
  <rect x="632" y="204" width="12" height="12" rx="2" fill="#9D755D"/>
  <text x="650" y="215" class="legend-text">ColumnBatch</text>
  <text x="56" y="406.0" class="footnote">Shaded band: ±5% run-to-run noise floor — a line staying inside it moved by less than the noise floor.</text>
</svg>
