<svg xmlns="http://www.w3.org/2000/svg" width="776" height="420" viewBox="0 0 776 420">
  <style>
    text { font-family: -apple-system, BlinkMacSystemFont, "Segoe UI", Helvetica, Arial, sans-serif; }
    .title { font-size: 15px; font-weight: 600; fill: #24292f; }
    .axis-label { font-size: 11px; fill: #57606a; }
    .legend-text { font-size: 12px; fill: #24292f; }
    .grid { stroke: #d0d7de; stroke-width: 0.5; }
    .baseline { stroke: #8c959f; stroke-width: 1; stroke-dasharray: 4 3; }
    .noise-band { fill: #b1bac4; opacity: 0.18; }
    .footnote { font-size: 11px; fill: #57606a; }
  </style>
  <rect width="100%" height="100%" fill="white"/>
  <rect x="56" y="204.0" width="560" height="106.7" class="noise-band"/>
  <text x="336.0" y="26" text-anchor="middle" class="title">Merge into existing — throughput vs each message’s first release (%)</text>
  <line x1="56" y1="364.0" x2="616" y2="364.0" class="grid"/>
  <text x="48" y="368.0" text-anchor="end" class="axis-label">90%</text>
  <line x1="56" y1="310.7" x2="616" y2="310.7" class="grid"/>
  <text x="48" y="314.7" text-anchor="end" class="axis-label">95%</text>
  <line x1="56" y1="257.3" x2="616" y2="257.3" class="grid"/>
  <text x="48" y="261.3" text-anchor="end" class="axis-label">100%</text>
  <line x1="56" y1="204.0" x2="616" y2="204.0" class="grid"/>
  <text x="48" y="208.0" text-anchor="end" class="axis-label">105%</text>
  <line x1="56" y1="150.7" x2="616" y2="150.7" class="grid"/>
  <text x="48" y="154.7" text-anchor="end" class="axis-label">110%</text>
  <line x1="56" y1="97.3" x2="616" y2="97.3" class="grid"/>
  <text x="48" y="101.3" text-anchor="end" class="axis-label">115%</text>
  <line x1="56" y1="44.0" x2="616" y2="44.0" class="grid"/>
  <text x="48" y="48.0" text-anchor="end" class="axis-label">120%</text>
  <line x1="56" y1="257.3" x2="616" y2="257.3" class="baseline"/>
  <text x="56.0" y="382" text-anchor="middle" class="axis-label">v0.1.0</text>
  <text x="126.0" y="382" text-anchor="middle" class="axis-label">v0.2.0</text>
  <text x="196.0" y="382" text-anchor="middle" class="axis-label">v0.3.0</text>
  <text x="266.0" y="382" text-anchor="middle" class="axis-label">v0.4.0</text>
  <text x="336.0" y="382" text-anchor="middle" class="axis-label">v0.5.0</text>
  <text x="406.0" y="382" text-anchor="middle" class="axis-label">v0.6.0</text>
  <text x="476.0" y="382" text-anchor="middle" class="axis-label">v0.7.0</text>
  <text x="546.0" y="382" text-anchor="middle" class="axis-label">v0.7.1</text>
  <text x="616.0" y="382" text-anchor="middle" class="axis-label">v0.8.0</text>
  <path d="M56.0,257.3 L126.0,239.4 L196.0,215.6 L266.0,194.7 L336.0,187.2 L406.0,179.4 L476.0,187.3 L546.0,192.0 L616.0,111.4" fill="none" stroke="#4C78A8" stroke-width="2"/>
  <circle cx="56.0" cy="257.3" r="3" fill="#4C78A8"/>
  <circle cx="126.0" cy="239.4" r="3" fill="#4C78A8"/>
  <circle cx="196.0" cy="215.6" r="3" fill="#4C78A8"/>
  <circle cx="266.0" cy="194.7" r="3" fill="#4C78A8"/>
  <circle cx="336.0" cy="187.2" r="3" fill="#4C78A8"/>
  <circle cx="406.0" cy="179.4" r="3" fill="#4C78A8"/>
  <circle cx="476.0" cy="187.3" r="3" fill="#4C78A8"/>
  <circle cx="546.0" cy="192.0" r="3" fill="#4C78A8"/>
  <circle cx="616.0" cy="111.4" r="3" fill="#4C78A8"/>
  <path d="M56.0,257.3 L126.0,231.7 L196.0,232.9 L266.0,240.4 L336.0,234.0 L406.0,235.9 L476.0,233.8 L546.0,240.8 L616.0,99.2" fill="none" stroke="#F58518" stroke-width="2"/>
  <circle cx="56.0" cy="257.3" r="3" fill="#F58518"/>
  <circle cx="126.0" cy="231.7" r="3" fill="#F58518"/>
  <circle cx="196.0" cy="232.9" r="3" fill="#F58518"/>
  <circle cx="266.0" cy="240.4" r="3" fill="#F58518"/>
  <circle cx="336.0" cy="234.0" r="3" fill="#F58518"/>
  <circle cx="406.0" cy="235.9" r="3" fill="#F58518"/>
  <circle cx="476.0" cy="233.8" r="3" fill="#F58518"/>
  <circle cx="546.0" cy="240.8" r="3" fill="#F58518"/>
  <circle cx="616.0" cy="99.2" r="3" fill="#F58518"/>
  <path d="M56.0,257.3 L126.0,199.2 L196.0,247.6 L266.0,228.9 L336.0,213.6 L406.0,234.6 L476.0,207.0 L546.0,181.3 L616.0,48.9" fill="none" stroke="#54A24B" stroke-width="2"/>
  <circle cx="56.0" cy="257.3" r="3" fill="#54A24B"/>
  <circle cx="126.0" cy="199.2" r="3" fill="#54A24B"/>
  <circle cx="196.0" cy="247.6" r="3" fill="#54A24B"/>
  <circle cx="266.0" cy="228.9" r="3" fill="#54A24B"/>
  <circle cx="336.0" cy="213.6" r="3" fill="#54A24B"/>
  <circle cx="406.0" cy="234.6" r="3" fill="#54A24B"/>
  <circle cx="476.0" cy="207.0" r="3" fill="#54A24B"/>
  <circle cx="546.0" cy="181.3" r="3" fill="#54A24B"/>
  <circle cx="616.0" cy="48.9" r="3" fill="#54A24B"/>
  <path d="M56.0,257.3 L126.0,288.4 L196.0,232.2 L266.0,223.0 L336.0,249.4 L406.0,234.8 L476.0,213.4 L546.0,253.8 L616.0,252.6" fill="none" stroke="#E45756" stroke-width="2"/>
  <circle cx="56.0" cy="257.3" r="3" fill="#E45756"/>
  <circle cx="126.0" cy="288.4" r="3" fill="#E45756"/>
  <circle cx="196.0" cy="232.2" r="3" fill="#E45756"/>
  <circle cx="266.0" cy="223.0" r="3" fill="#E45756"/>
  <circle cx="336.0" cy="249.4" r="3" fill="#E45756"/>
  <circle cx="406.0" cy="234.8" r="3" fill="#E45756"/>
  <circle cx="476.0" cy="213.4" r="3" fill="#E45756"/>
  <circle cx="546.0" cy="253.8" r="3" fill="#E45756"/>
  <circle cx="616.0" cy="252.6" r="3" fill="#E45756"/>
  <path d="M56.0,257.3 L126.0,265.2 L196.0,275.4 L266.0,279.3 L336.0,272.5 L406.0,282.8 L476.0,290.3 L546.0,288.7 L616.0,209.1" fill="none" stroke="#72B7B2" stroke-width="2"/>
  <circle cx="56.0" cy="257.3" r="3" fill="#72B7B2"/>
  <circle cx="126.0" cy="265.2" r="3" fill="#72B7B2"/>
  <circle cx="196.0" cy="275.4" r="3" fill="#72B7B2"/>
  <circle cx="266.0" cy="279.3" r="3" fill="#72B7B2"/>
  <circle cx="336.0" cy="272.5" r="3" fill="#72B7B2"/>
  <circle cx="406.0" cy="282.8" r="3" fill="#72B7B2"/>
  <circle cx="476.0" cy="290.3" r="3" fill="#72B7B2"/>
  <circle cx="546.0" cy="288.7" r="3" fill="#72B7B2"/>
  <circle cx="616.0" cy="209.1" r="3" fill="#72B7B2"/>
  <path d="M56.0,257.3 L126.0,267.9 L196.0,220.1 L266.0,247.7 L336.0,234.5 L406.0,246.9 L476.0,227.9 L546.0,226.9 L616.0,272.5" fill="none" stroke="#B279A2" stroke-width="2"/>
  <circle cx="56.0" cy="257.3" r="3" fill="#B279A2"/>
  <circle cx="126.0" cy="267.9" r="3" fill="#B279A2"/>
  <circle cx="196.0" cy="220.1" r="3" fill="#B279A2"/>
  <circle cx="266.0" cy="247.7" r="3" fill="#B279A2"/>
  <circle cx="336.0" cy="234.5" r="3" fill="#B279A2"/>
  <circle cx="406.0" cy="246.9" r="3" fill="#B279A2"/>
  <circle cx="476.0" cy="227.9" r="3" fill="#B279A2"/>
  <circle cx="546.0" cy="226.9" r="3" fill="#B279A2"/>
  <circle cx="616.0" cy="272.5" r="3" fill="#B279A2"/>
  <rect x="632" y="50" width="12" height="12" rx="2" fill="#4C78A8"/>
  <text x="650" y="61" class="legend-text">ApiResponse</text>
  <rect x="632" y="72" width="12" height="12" rx="2" fill="#F58518"/>
  <text x="650" y="83" class="legend-text">LogRecord</text>
  <rect x="632" y="94" width="12" height="12" rx="2" fill="#54A24B"/>
  <text x="650" y="105" class="legend-text">AnalyticsEvent</text>
  <rect x="632" y="116" width="12" height="12" rx="2" fill="#E45756"/>
  <text x="650" y="127" class="legend-text">GoogleMessage1</text>
  <rect x="632" y="138" width="12" height="12" rx="2" fill="#72B7B2"/>
  <text x="650" y="149" class="legend-text">MediaFrame</text>
  <rect x="632" y="160" width="12" height="12" rx="2" fill="#B279A2"/>
  <text x="650" y="171" class="legend-text">PackedTile</text>
  <text x="56" y="406.0" class="footnote">Shaded band: ±5% run-to-run noise floor — a line staying inside it moved by less than the noise floor.</text>
</svg>
